nColumns=19
nRows=98
DataType=double
version=3
OpenSimVersion=4.1
endheader
time	ground_force_1_vx	ground_force_1_vy	ground_force_1_vz	ground_force_1_px	ground_force_1_py	ground_force_1_pz	ground_force_1_mx	ground_force_1_my	ground_force_1_mz	ground_force_2_vx	ground_force_2_vy	ground_force_2_vz	ground_force_2_px	ground_force_2_py	ground_force_2_pz	ground_force_2_mx	ground_force_2_my	ground_force_2_mz
1.14	2.68754	166.567	-1.5751	0.911237	0	-0.282429	-0	2.03244	-0	0	0	0	-0.0018159	0	-0.000227094	0	0	0
1.15	13.7244	334.804	0.964435	0.975151	0	-0.272859	-0	1.74794	-0	0	0	0	-0.0018159	0	-0.000227094	0	0	0
1.16	16.9178	566.896	17.587	0.992842	0	-0.270141	-0	2.35992	-0	0	0	0	-0.0018159	0	-0.000227095	0	0	0
1.17	-9.08998	742.207	42.2067	1.00009	0	-0.269193	-0	2.87106	-0	0	0	0	-0.0018159	0	-0.000227095	0	0	0
1.18	-54.2125	804.691	38.5335	1.00371	0	-0.268851	-0	2.3016	-0	0	0	0	-0.0018159	0	-0.000227096	0	0	0
1.19	-99.3336	822.815	7.88412	1.0034	0	-0.268422	-0	0.773537	-0	0	0	0	-0.0018159	0	-0.000227097	0	0	0
1.2	-131.363	875.909	-14.0253	0.996699	0	-0.267419	0	-0.675133	0	0	0	0	-0.0018159	0	-0.000227099	0	0	0
1.21	-141.111	978.882	-22.2532	0.983673	0	-0.266038	0	-1.11728	0	0	0	0	-0.00181591	0	-0.000227101	0	0	0
1.22	-134.293	1094.78	-24.6772	0.967965	0	-0.264855	0	-0.491291	0	0	0	0	-0.00181591	0	-0.000227103	0	0	0
1.23	-121.049	1186.65	-21.875	0.952784	0	-0.264025	-0	0.55204	-0	0	0	0	-0.00181591	0	-0.000227105	0	0	0
1.24	-106.153	1243.76	-21.2549	0.938943	0	-0.263287	-0	1.3354	-0	0	0	0	-0.00181591	0	-0.000227108	0	0	0
1.25	-91.4982	1269.77	-26.7201	0.925999	0	-0.262307	-0	1.60984	-0	0	0	0	-0.00181592	0	-0.000227111	0	0	0
1.26	-79.7635	1270.55	-34.282	0.913371	0	-0.260872	-0	1.49734	-0	0	0	0	-0.00181592	0	-0.000227114	0	0	0
1.27	-70.7481	1253.3	-42.7366	0.900635	0	-0.258971	-0	1.20891	-0	0	0	0	-0.00181592	0	-0.000227117	0	0	0
1.28	-60.7745	1226.41	-49.3203	0.887508	0	-0.256787	-0	0.883806	-0	0	0	0	-0.00181593	0	-0.000227121	0	0	0
1.29	-46.76	1194.01	-51.662	0.873922	0	-0.254612	-0	0.603157	-0	0	0	0	-0.00181593	0	-0.000227125	0	0	0
1.3	-29.4651	1153.81	-52.8075	0.86002	0	-0.252703	-0	0.432756	-0	0	0	0	-0.00181594	0	-0.000227129	0	0	0
1.31	-11.8093	1104.61	-53.7643	0.845915	0	-0.251164	-0	0.408728	-0	0	0	0	-0.00181594	0	-0.000227134	0	0	0
1.32	5.01787	1050.29	-50.5522	0.831464	0	-0.249978	-0	0.517399	-0	0	0	0	-0.00181595	0	-0.000227139	0	0	0
1.33	22.1372	994.76	-41.6099	0.816319	0	-0.249146	-0	0.727273	-0	0	0	0	-0.00181595	0	-0.000227144	0	0	0
1.34	40.4305	937.713	-31.5661	0.800229	0	-0.248763	-0	1.03393	-0	0	0	0	-0.00181596	0	-0.000227149	0	0	0
1.35	58.0447	876.373	-22.1592	0.783264	0	-0.248923	-0	1.44885	-0	0	0	0	-0.00181597	0	-0.000227155	0	0	0
1.36	71.9109	809.99	-11.0247	0.765798	0	-0.249575	-0	1.93971	-0	0	0	0	-0.00181597	0	-0.000227161	0	0	0
1.37	81.0146	739.555	1.01842	0.748296	0	-0.250459	-0	2.39167	-0	0	0	0	-0.00181598	0	-0.000227167	0	0	0
1.38	85.6621	664.586	11.3591	0.731124	0	-0.251181	-0	2.63923	-0	0	0	0	-0.00181599	0	-0.000227173	0	0	0
1.39	86.394	583.703	18.7355	0.714407	0	-0.251362	-0	2.56767	-0	0	0	0	-0.00181599	0	-0.00022718	0	0	0
1.4	82.5241	497.08	23.2081	0.697915	0	-0.250779	-0	2.23682	-0	0	0	0	-0.001816	0	-0.000227187	0	0	0
1.41	73.5846	407.397	25.0865	0.681216	0	-0.249477	-0	1.92996	-0	0	0	0	-0.00181601	0	-0.000227194	0	0	0
1.42	61.5163	321.717	22.0633	0.664524	0	-0.24789	-0	2.01934	-0	0	0	0	-0.00181602	0	-0.000227202	0	0	0
1.43	51.2896	247.828	14.9756	0.650071	0	-0.246808	-0	2.63908	-0	0	0	0	-0.00181602	0	-0.000227209	0	0	0
1.44	45.9763	189.741	9.76193	0.641577	0	-0.246632	-0	3.35707	-0	0	0	0	-0.00181603	0	-0.000227217	0	0	0
1.45	42.7981	147.324	9.45917	0.636189	0	-0.245833	-0	3.21718	-0	0	0	0	-0.00181604	0	-0.000227226	0	0	0
1.46	0	0	0	-0.00181605	0	-0.000227226	0	0	0	0	0	0	-0.00181605	0	-0.000227234	0	0	0
1.47	0	0	0	-0.00181606	0	-0.000227234	0	0	0	0	0	0	-0.00181606	0	-0.000227243	0	0	0
1.48	0	0	0	-0.00181607	0	-0.000227243	0	0	0	0	0	0	-0.00181607	0	-0.000227252	0	0	0
1.49	0	0	0	-0.00181608	0	-0.000227251	0	0	0	0	0	0	-0.00181608	0	-0.000227261	0	0	0
1.5	0	0	0	-0.00181609	0	-0.00022726	0	0	0	0	0	0	-0.00181609	0	-0.000227271	0	0	0
1.51	0	0	0	-0.0018161	0	-0.000227269	0	0	0	31.2747	213.46	-12.2302	0.920814	0	-0.302886	-0	1.70514	-0
1.52	0	0	0	-0.00181611	0	-0.000227279	0	0	0	46.905	390.857	-29.3529	0.969726	0	-0.306212	-0	1.44796	-0
1.53	0	0	0	-0.00181612	0	-0.000227289	0	0	0	36.2828	590.303	-38.4204	0.987478	0	-0.306342	-0	0.373423	-0
1.54	0	0	0	-0.00181614	0	-0.000227298	0	0	0	-2.63004	720.232	-31.3438	0.99517	0	-0.306386	0	-0.181148	0
1.55	0	0	0	-0.00181615	0	-0.000227309	0	0	0	-45.1239	767.921	-28.1908	0.996612	0	-0.307172	-0	0.094941	-0
1.56	0	0	0	-0.00181616	0	-0.000227319	0	0	0	-75.5993	794.284	-26.5307	0.991066	0	-0.308655	-0	0.66498	-0
1.57	0	0	0	-0.00181617	0	-0.000227329	0	0	0	-93.5027	853.161	-10.4566	0.978449	0	-0.31012	-0	0.925108	-0
1.58	0	0	0	-0.00181618	0	-0.00022734	0	0	0	-98.0402	947.66	6.86229	0.961853	0	-0.310914	-0	0.675837	-0
1.59	0	0	0	-0.0018162	0	-0.000227351	0	0	0	-89.3281	1046.25	10.2178	0.945074	0	-0.311099	-0	0.108717	-0
1.6	0	0	0	-0.00181621	0	-0.000227362	0	0	0	-73.6391	1123.81	5.79576	0.929573	0	-0.311119	0	-0.459408	0
1.61	0	0	0	-0.00181622	0	-0.000227374	0	0	0	-58.7168	1174.16	4.81495	0.91503	0	-0.311323	0	-0.833344	0
1.62	0	0	0	-0.00181624	0	-0.000227386	0	0	0	-47.7174	1200.64	8.82618	0.900911	0	-0.311885	0	-1.00586	0
1.63	0	0	0	-0.00181625	0	-0.000227398	0	0	0	-40.0122	1207.1	15.7804	0.887073	0	-0.312852	0	-1.05381	0
1.64	0	0	0	-0.00181627	0	-0.00022741	0	0	0	-33.3714	1196.81	22.2527	0.873623	0	-0.314153	0	-1.00761	0
1.65	0	0	0	-0.00181628	0	-0.000227422	0	0	0	-25.5676	1173.75	27.5766	0.860665	0	-0.315629	0	-0.824232	0
1.66	0	0	0	-0.00181629	0	-0.000227434	0	0	0	-14.799	1141.4	32.9669	0.84829	0	-0.317109	0	-0.46299	0
1.67	0	0	0	-0.00181631	0	-0.000227447	0	0	0	-2.09195	1099.97	36.8286	0.836658	0	-0.318498	-0	0.040052	-0
1.68	0	0	0	-0.00181632	0	-0.00022746	0	0	0	9.36881	1048.72	38.0457	0.825795	0	-0.319754	-0	0.581666	-0
1.69	0	0	0	-0.00181634	0	-0.000227473	0	0	0	19.4519	990.022	37.091	0.815239	0	-0.320818	-0	1.06425	-0
1.7	0	0	0	-0.00181635	0	-0.000227487	0	0	0	29.887	928.54	34.5915	0.804047	0	-0.321568	-0	1.44395	-0
1.71	0	0	0	-0.00181637	0	-0.0002275	0	0	0	41.3198	867.266	29.6116	0.791256	0	-0.321824	-0	1.69985	-0
1.72	0	0	0	-0.00181639	0	-0.000227514	0	0	0	54.908	806.672	20.3148	0.776457	0	-0.321446	-0	1.76558	-0
1.73	0	0	0	-0.0018164	0	-0.000227528	0	0	0	69.2553	745.416	8.33203	0.760044	0	-0.320408	-0	1.52442	-0
1.74	0	0	0	-0.00181642	0	-0.000227542	0	0	0	80.3454	681.962	-2.21389	0.742771	0	-0.318857	-0	0.916725	-0
1.75	0	0	0	-0.00181644	0	-0.000227556	0	0	0	86.8724	615.535	-10.7907	0.725008	0	-0.317102	-0	0.074304	-0
1.76	0	0	0	-0.00181645	0	-0.000227571	0	0	0	89.5596	545.087	-18.3922	0.706552	0	-0.31553	0	-0.673076	0
1.77	0	0	0	-0.00181647	0	-0.000227585	0	0	0	88.2643	469.673	-21.7515	0.687297	0	-0.314455	0	-0.974252	0
1.78	0	0	0	-0.00181649	0	-0.0002276	0	0	0	83.2001	390.912	-19.8019	0.668451	0	-0.313946	0	-0.697192	0
1.79	0	0	0	-0.0018165	0	-0.000227615	0	0	0	74.7715	313.386	-16.4543	0.653597	0	-0.313644	0	-0.0465	0
1.8	0	0	0	-0.00181652	0	-0.000227631	0	0	0	64.0759	242.597	-12.1837	0.647195	0	-0.312818	-0	0.536248	-0
1.81	0	0	0	-0.00181654	0	-0.000227646	0	0	0	52.4705	184.991	-6.22717	0.647154	0	-0.311339	-0	0.6342	-0
1.82	0	0	0	-0.00181656	0	-0.000227662	0	0	0	41.7079	141.372	-0.184815	0.632657	0	-0.311597	-0	0.153877	-0
1.83	0	0	0	-0.00181658	0	-0.000227677	0	0	0	0	0	0	-0.00181657	0	-0.000227714	0	0	0
1.84	0	0	0	-0.00181659	0	-0.000227693	0	0	0	0	0	0	-0.00181659	0	-0.000227731	0	0	0
1.85	0	0	0	-0.00181661	0	-0.000227709	0	0	0	0	0	0	-0.00181661	0	-0.000227748	0	0	0
1.86	0	0	0	-0.00181663	0	-0.000227726	0	0	0	0	0	0	-0.00181663	0	-0.000227766	0	0	0
1.87	28.5453	229.249	7.98628	0.942388	0	-0.260143	-0	2.29128	-0	0	0	0	-0.00181665	0	-0.000227783	0	0	0
1.88	47.591	437.217	13.9235	0.986149	0	-0.254678	-0	2.76558	-0	0	0	0	-0.00181666	0	-0.000227801	0	0	0
1.89	36.0373	674.391	31.2291	1.00232	0	-0.252741	-0	2.95381	-0	0	0	0	-0.00181668	0	-0.000227819	0	0	0
1.9	-12.2206	823.994	43.5052	1.01087	0	-0.251951	-0	2.69637	-0	0	0	0	-0.0018167	0	-0.000227836	0	0	0
1.91	-67.2735	865.144	25.781	1.0152	0	-0.251603	-0	1.7803	-0	0	0	0	-0.00181672	0	-0.000227855	0	0	0
1.92	-106.447	878.736	-4.33753	1.01366	0	-0.251174	-0	0.480478	-0	0	0	0	-0.00181674	0	-0.000227873	0	0	0
1.93	-125.768	937.255	-22.7361	1.00431	0	-0.25036	0	-0.471796	0	0	0	0	-0.00181676	0	-0.000227891	0	0	0
1.94	-128.452	1041.53	-32.2092	0.989125	0	-0.24938	0	-0.531994	0	0	0	0	-0.00181678	0	-0.00022791	0	0	0
1.95	-120.893	1147.39	-36.2295	0.972537	0	-0.248618	-0	0.180948	-0	0	0	0	-0.0018168	0	-0.000227929	0	0	0
1.96	-106.821	1224.03	-35.7184	0.957082	0	-0.248128	-0	1.07935	-0	0	0	0	-0.00181682	0	-0.000227947	0	0	0
1.97	-90.14	1266.43	-36.9372	0.94297	0	-0.247708	-0	1.64648	-0	0	0	0	-0.00181684	0	-0.000227966	0	0	0
1.98	-76.308	1276.9	-41.5088	0.92971	0	-0.247129	-0	1.743	-0	0	0	0	-0.00181686	0	-0.000227986	0	0	0
1.99	-67.5704	1258.97	-47.828	0.916947	0	-0.246245	-0	1.5232	-0	0	0	0	-0.00181689	0	-0.000228005	0	0	0
2	-60.2532	1221.55	-55.4738	0.904482	0	-0.245041	-0	1.19917	-0	0	0	0	-0.00181691	0	-0.000228024	0	0	0
2.01	-49.5608	1175.94	-60.4411	0.892149	0	-0.243634	-0	0.89709	-0	0	0	0	-0.00181693	0	-0.000228044	0	0	0
2.02	-34.475	1126.2	-61.5921	0.879839	0	-0.242219	-0	0.655602	-0	0	0	0	-0.00181695	0	-0.000228064	0	0	0
2.03	-18.6397	1069.21	-61.662	0.867444	0	-0.240984	-0	0.487815	-0	0	0	0	-0.00181697	0	-0.000228083	0	0	0
2.04	-4.69204	1004.87	-60.3465	0.854699	0	-0.240042	-0	0.428296	-0	0	0	0	-0.00181699	0	-0.000228103	0	0	0
2.05	8.36074	939.086	-54.557	0.84117	0	-0.239469	-0	0.536374	-0	0	0	0	-0.00181701	0	-0.000228123	0	0	0
2.06	22.11	875.988	-44.6612	0.826517	0	-0.239392	-0	0.862655	-0	0	0	0	-0.00181704	0	-0.000228143	0	0	0
2.07	36.1555	813.562	-34.3014	0.81073	0	-0.239939	-0	1.40171	-0	0	0	0	-0.00181706	0	-0.000228164	0	0	0
2.08	48.5497	748.683	-23.3954	0.794114	0	-0.2411	-0	2.06442	-0	0	0	0	-0.00181708	0	-0.000228184	0	0	0
2.09	57.8914	681.842	-11.5602	0.777132	0	-0.242656	-0	2.69736	-0	0	0	0	-0.0018171	0	-0.000228205	0	0	0
2.1	63.5665	614.078	-0.603088	0.76014	0	-0.244229	-0	3.14318	-0	0	0	0	-0.00181712	0	-0.000228225	0	0	0
2.11	65.6276	545.239	7.54131	0.743122	0	-0.245405	-0	3.30883	-0	0	0	0	-0.00181715	0	-0.000228246	0	0	0
